<?xml version="1.0" encoding="utf-8"?>
<!-- Generator: Adobe Illustrator 26.3.0, SVG Export Plug-In . SVG Version: 6.00 Build 0)  -->
<svg version="1.1" id="Capa_1" xmlns="http://www.w3.org/2000/svg" xmlns:xlink="http://www.w3.org/1999/xlink" x="0px" y="0px"
	 viewBox="0 0 240 42" style="enable-background:new 0 0 240 42;" xml:space="preserve">
<style type="text/css">
	.st0{display:none;}
	.st1{display:inline;}
	.st2{display:inline;clip-path:url(#SVGID_00000181055767129935287970000005061188090563884423_);}
	.st3{fill:#075FE4;}
	.st4{fill:#1D1D1B;}
	.st5{fill:#00CE7C;}
	.st6{fill:#FFFFFF;}
</style>
<g class="st0">
	<defs>
		<rect id="SVGID_1_" width="240" height="42"/>
	</defs>
	<clipPath id="SVGID_00000107569671932817840080000010301912510973359495_" class="st1">
		<use xlink:href="#SVGID_1_"  style="overflow:visible;"/>
	</clipPath>
	<g style="display:inline;clip-path:url(#SVGID_00000107569671932817840080000010301912510973359495_);">
		<path class="st3" d="M16.4,32.1h5.1l5.1-22.2h-5.1L16.4,32.1z"/>
		<path class="st3" d="M11.5,10l-11,11l0,0l0,0l11,11l3.3-3.3L7.2,21l7.7-7.7L11.5,10z"/>
		<path class="st3" d="M3.8,17.7L0.5,21l3.3,3.3L7.2,21L3.8,17.7z"/>
		<path class="st3" d="M42.5,21l-11-11l-3.3,3.3l7.7,7.7l-7.7,7.7l3.3,3.3L42.5,21L42.5,21L42.5,21z"/>
		<path class="st3" d="M39.2,17.7L35.8,21l3.3,3.3l3.3-3.3L39.2,17.7z"/>
		<path class="st4" d="M54.7,32V9.6h7.6c2.6,0,4.8,0.5,6.5,1.4c1.7,0.9,3,2.2,3.8,3.9c0.8,1.7,1.2,3.6,1.2,5.9s-0.4,4.2-1.2,5.9
			c-0.8,1.7-2.1,3-3.8,3.9c-1.7,0.9-3.8,1.4-6.5,1.4H54.7z M58.8,28.5h3.4c1.9,0,3.4-0.3,4.4-0.9c1.1-0.6,1.9-1.5,2.3-2.6
			c0.5-1.2,0.7-2.5,0.7-4.2c0-1.6-0.2-3-0.7-4.1c-0.5-1.2-1.2-2-2.3-2.7c-1.1-0.6-2.6-0.9-4.4-0.9h-3.4V28.5z M85,32.4
			c-1.6,0-3-0.3-4.3-1c-1.2-0.7-2.2-1.6-2.9-2.9c-0.7-1.2-1.1-2.7-1.1-4.3c0-1.6,0.3-3.1,1-4.4c0.7-1.3,1.7-2.3,2.9-3
			c1.2-0.7,2.7-1.1,4.4-1.1c1.6,0,2.9,0.3,4.1,1c1.2,0.7,2.1,1.6,2.8,2.8c0.7,1.2,1,2.5,1,3.9c0,0.2,0,0.5,0,0.7c0,0.3,0,0.5,0,0.8
			H80.9c0.1,1.2,0.5,2.2,1.3,2.9C83,28.7,83.9,29,85,29c0.8,0,1.5-0.2,2.1-0.5c0.6-0.4,1-0.9,1.3-1.5h4.2c-0.3,1-0.8,1.9-1.5,2.8
			c-0.7,0.8-1.5,1.5-2.6,1.9C87.5,32.1,86.3,32.4,85,32.4z M85.1,19.1c-1,0-1.9,0.3-2.7,0.9c-0.8,0.6-1.3,1.4-1.5,2.6h7.9
			c-0.1-1-0.4-1.9-1.2-2.5C87,19.4,86.1,19.1,85.1,19.1z M100.1,32l-5.8-15.9h4.3l4,12l4-12h4.3L105.1,32H100.1z M120.4,32.4
			c-1.6,0-3-0.3-4.3-1c-1.2-0.7-2.2-1.6-2.9-2.9c-0.7-1.2-1.1-2.7-1.1-4.3c0-1.6,0.3-3.1,1-4.4c0.7-1.3,1.7-2.3,2.9-3
			c1.2-0.7,2.7-1.1,4.4-1.1c1.6,0,2.9,0.3,4.1,1c1.2,0.7,2.1,1.6,2.8,2.8c0.7,1.2,1,2.5,1,3.9c0,0.2,0,0.5,0,0.7c0,0.3,0,0.5,0,0.8
			h-12.1c0.1,1.2,0.5,2.2,1.3,2.9c0.8,0.7,1.7,1.1,2.8,1.1c0.8,0,1.5-0.2,2.1-0.5c0.6-0.4,1-0.9,1.3-1.5h4.2c-0.3,1-0.8,1.9-1.5,2.8
			c-0.7,0.8-1.5,1.5-2.6,1.9C122.9,32.1,121.7,32.4,120.4,32.4z M120.5,19.1c-1,0-1.9,0.3-2.7,0.9c-0.8,0.6-1.3,1.4-1.5,2.6h7.9
			c-0.1-1-0.4-1.9-1.2-2.5C122.4,19.4,121.5,19.1,120.5,19.1z M131.9,32V9h4.1v23H131.9z M147.8,32.4c-1.5,0-2.9-0.4-4.2-1.1
			c-1.2-0.7-2.2-1.7-2.9-2.9c-0.7-1.3-1.1-2.7-1.1-4.4c0-1.6,0.4-3.1,1.1-4.3c0.7-1.3,1.7-2.2,2.9-2.9c1.2-0.7,2.6-1.1,4.2-1.1
			c1.5,0,2.9,0.4,4.1,1.1c1.2,0.7,2.2,1.7,2.9,2.9c0.7,1.2,1.1,2.7,1.1,4.3c0,1.6-0.4,3.1-1.1,4.4c-0.7,1.2-1.7,2.2-2.9,2.9
			C150.6,32,149.3,32.4,147.8,32.4z M147.8,28.8c1.1,0,2-0.4,2.8-1.2c0.8-0.8,1.2-2,1.2-3.6c0-1.6-0.4-2.8-1.2-3.6
			c-0.8-0.8-1.7-1.2-2.8-1.2c-1.1,0-2,0.4-2.8,1.2c-0.8,0.8-1.2,2-1.2,3.6c0,1.6,0.4,2.8,1.2,3.6C145.8,28.4,146.7,28.8,147.8,28.8z
			 M159.5,39V16.1h3.6l0.4,2.3c0.5-0.7,1.2-1.3,2-1.9c0.9-0.5,2-0.8,3.3-0.8c1.5,0,2.8,0.4,4,1.1c1.2,0.7,2.1,1.7,2.8,3
			c0.7,1.3,1,2.7,1,4.3c0,1.6-0.3,3-1,4.3c-0.7,1.2-1.6,2.2-2.8,2.9c-1.2,0.7-2.5,1.1-4,1.1c-1.2,0-2.2-0.2-3.1-0.7
			s-1.6-1.1-2.2-1.9V39H159.5z M168.1,28.8c1.3,0,2.4-0.4,3.2-1.3c0.9-0.9,1.3-2,1.3-3.4c0-1.4-0.4-2.5-1.3-3.4
			c-0.9-0.9-1.9-1.3-3.2-1.3c-1.3,0-2.4,0.4-3.3,1.3c-0.8,0.9-1.2,2-1.2,3.4c0,1.4,0.4,2.5,1.2,3.4
			C165.7,28.4,166.8,28.8,168.1,28.8z M188.1,32.4c-1.6,0-3-0.3-4.3-1c-1.2-0.7-2.2-1.6-2.9-2.9c-0.7-1.2-1.1-2.7-1.1-4.3
			c0-1.6,0.3-3.1,1-4.4c0.7-1.3,1.7-2.3,2.9-3c1.2-0.7,2.7-1.1,4.4-1.1c1.6,0,2.9,0.3,4.1,1c1.2,0.7,2.1,1.6,2.8,2.8
			c0.7,1.2,1,2.5,1,3.9c0,0.2,0,0.5,0,0.7c0,0.3,0,0.5,0,0.8H184c0.1,1.2,0.5,2.2,1.3,2.9c0.8,0.7,1.7,1.1,2.8,1.1
			c0.8,0,1.5-0.2,2.1-0.5c0.6-0.4,1-0.9,1.3-1.5h4.2c-0.3,1-0.8,1.9-1.5,2.8c-0.7,0.8-1.5,1.5-2.6,1.9
			C190.6,32.1,189.4,32.4,188.1,32.4z M188.2,19.1c-1,0-1.9,0.3-2.7,0.9c-0.8,0.6-1.3,1.4-1.5,2.6h7.9c-0.1-1-0.4-1.9-1.2-2.5
			C190.1,19.4,189.2,19.1,188.2,19.1z M199.5,32V16.1h3.6l0.4,3c0.6-1,1.4-1.8,2.3-2.4c1-0.6,2.2-0.9,3.5-0.9v4.3h-1.2
			c-0.9,0-1.7,0.1-2.4,0.4c-0.7,0.3-1.3,0.8-1.7,1.4c-0.4,0.7-0.6,1.6-0.6,2.8V32H199.5z M218.9,32l7-11.3l-7.1-11.1h4.7l5,7.8
			l4.6-7.8h4.6l-7,11.3l7.2,11.1h-4.7l-5.1-7.9l-4.6,7.9H218.9z"/>
	</g>
</g>
<g>
	<path class="st5" d="M17.7,7.2h-3.9l8.1,11.3l-4.1,5.9h4.8c0.7,0,1.4-0.3,1.7-0.7l2.9-4.2c0.4-0.6,0.4-1.4,0-2l-6.5-9
		C20.1,7.7,19,7.2,17.7,7.2z"/>
	<path class="st5" d="M17.3,30.2h3.9l-8.1-11.3l4.1-5.9h-4.8c-0.7,0-1.4,0.3-1.7,0.7l-2.9,4.2c-0.4,0.6-0.4,1.4,0,2l6.5,9
		C15,29.7,16.1,30.2,17.3,30.2z"/>
	<path class="st5" d="M6,30.2h2.2c0.7,0,1.3-0.3,1.6-0.7l2-2.8l-1.6-2.3L6,30.2z"/>
</g>
<path class="st6" d="M52.8,25.6c0,0.2-0.1,0.4-0.3,0.5s-0.3,0.3-0.4,0.3c-0.1,0.1-0.3,0.1-0.4,0.2c-0.1,0-0.2,0.1-0.3,0.1h-0.1
	c0,0-0.1,0-0.1,0c0,0-0.1,0-0.2-0.1c-0.1,0-0.2-0.1-0.3-0.1c-0.1-0.1-0.2-0.1-0.2-0.2c-0.1-0.1-0.1-0.2-0.1-0.4c0-0.1,0-0.2,0-0.3
	l1.1-4.6h-6.1h-2.5h-6.1l-1.1,4.6c-0.1,0.3-0.2,0.6-0.5,0.8c-0.2,0.2-0.5,0.3-0.7,0.3l-0.3,0c0,0-0.1,0-0.1,0c0,0-0.1,0-0.2-0.1
	c-0.1,0-0.2-0.1-0.3-0.1c-0.1,0-0.2-0.1-0.2-0.2c-0.1-0.1-0.1-0.2-0.1-0.4c0-0.1,0-0.2,0-0.3l2-8.1c0.3-1.3,1-2.3,2.2-3.2
	c1.2-0.9,2.4-1.3,3.8-1.3h1.2h7.4H51c1.1,0,2.1,0.3,2.8,1c0.7,0.7,1.1,1.5,1.1,2.5c0,0.3,0,0.7-0.1,1L52.8,25.6z M46,18.7H52
	l0.3-1.1c0-0.2,0.1-0.4,0.1-0.5c0-0.5-0.2-0.9-0.5-1.3c-0.4-0.3-0.8-0.5-1.4-0.5h-4.9h-4.9c-0.7,0-1.3,0.2-1.9,0.7s-1,1-1.1,1.6
	l-0.3,1.1h6.1H46z"/>
<path class="st6" d="M73.6,19.8c0.1-0.3,0.1-0.6,0.1-0.9c0-0.5-0.2-0.9-0.5-1.1c-0.3-0.2-0.8-0.3-1.5-0.3H62c-0.8,0-1.5,0.3-2.1,1
	c-0.6,0.7-1,1.5-1.2,2.4l-1.1,4.6c-0.1,0.3-0.3,0.6-0.6,0.8c-0.3,0.2-0.6,0.3-1,0.3c-0.3,0-0.5-0.1-0.7-0.2
	c-0.2-0.2-0.3-0.4-0.3-0.6c0-0.1,0-0.2,0-0.3l1.1-4.6c0.2-1,0.6-1.9,1.2-2.7s1.3-1.6,2.2-2.1s1.8-0.8,2.8-0.8h9.7
	c1.3,0,2.2,0.3,2.9,0.8s1,1.4,1,2.4c0,0.4-0.1,0.8-0.2,1.3c0,0.2-0.1,0.4-0.3,0.5c-0.1,0.2-0.2,0.3-0.4,0.3
	c-0.1,0.1-0.3,0.1-0.4,0.2c-0.1,0-0.3,0.1-0.3,0.1c-0.1,0-0.1,0-0.1,0c0,0-0.1,0-0.1,0s-0.1,0-0.2-0.1c-0.1,0-0.2-0.1-0.3-0.1
	c-0.1-0.1-0.2-0.1-0.2-0.2c-0.1-0.1-0.1-0.2-0.1-0.4C73.6,20,73.6,19.9,73.6,19.8z"/>
<path class="st6" d="M79.3,16.4c0.1-0.3,0.3-0.6,0.5-0.8c0.3-0.2,0.6-0.3,0.9-0.3c0.3,0,0.5,0.1,0.7,0.2c0.2,0.2,0.3,0.4,0.3,0.6
	c0,0.1,0,0.2,0,0.3l-2.2,9.2c-0.1,0.3-0.3,0.6-0.6,0.8c-0.3,0.2-0.6,0.3-1,0.3c-0.3,0-0.5-0.1-0.7-0.2S77,26.1,77,25.8
	c0-0.1,0-0.2,0-0.3L79.3,16.4z M80.9,14.8c-0.4,0-0.8-0.1-1-0.4s-0.4-0.6-0.4-1c0-0.1,0-0.3,0-0.4c0.1-0.5,0.4-0.9,0.8-1.2
	c0.4-0.3,0.9-0.5,1.4-0.5c0.4,0,0.7,0.1,1,0.4c0.3,0.3,0.4,0.6,0.4,1c0,0.1,0,0.2,0,0.3c-0.1,0.5-0.4,0.9-0.9,1.3
	S81.4,14.8,80.9,14.8z"/>
<path class="st6" d="M88.1,15.3H99c2.8,0,4.1,0.8,4.1,2.5c0,0.3,0,0.5-0.1,0.9c-0.2,0.6-0.4,1.1-0.8,1.6c-0.4,0.5-0.8,0.8-1.3,1.1
	c-0.5,0.3-1.1,0.5-1.7,0.6s-1.2,0.2-1.9,0.2H85.2c0,0.1,0,0.3,0,0.4c0,0.5,0.2,0.9,0.6,1.3c0.4,0.4,0.8,0.6,1.4,0.6
	c1.9,0,3.9,0,6.1,0s4.2,0,6.1,0c0.3,0,0.5,0.1,0.7,0.3c0.2,0.2,0.3,0.4,0.3,0.6c0,0.1,0,0.2,0,0.2c-0.1,0.3-0.3,0.6-0.5,0.8
	c-0.3,0.2-0.6,0.3-0.9,0.3H86.5c-1.1,0-2.1-0.3-2.8-1c-0.7-0.7-1.1-1.5-1.1-2.5c0-0.3,0-0.7,0.1-1l0.9-3.5c0.2-0.9,0.8-1.7,1.7-2.3
	C86.3,15.6,87.2,15.3,88.1,15.3z M85.8,19.8l12.1,0h0.5c0.3,0,0.6,0,0.8,0s0.4-0.1,0.6-0.1c0.2-0.1,0.4-0.2,0.5-0.4s0.2-0.4,0.3-0.6
	c0-0.1,0-0.3,0-0.3c0-0.2-0.1-0.4-0.2-0.5c-0.2-0.1-0.4-0.2-0.6-0.2c-0.2,0-0.5,0-0.8,0h-0.6H87.6c-0.3,0-0.6,0.1-0.9,0.3
	c-0.3,0.2-0.5,0.5-0.6,0.8L85.8,19.8z"/>
<path class="st6" d="M108.8,28.1c-2.1-8.8-3.5-14.9-4.3-18.2c0-0.2,0-0.4,0-0.6c0.1-0.4,0.4-0.7,0.8-0.9c0.1,0,0.3-0.1,0.5-0.1
	c0.5,0,0.8,0.2,0.9,0.6c1.9,7.9,3.3,14.1,4.4,18.4c0,0.2,0,0.4,0,0.5c-0.1,0.4-0.4,0.7-1,0.9c-0.2,0-0.3,0.1-0.4,0.1
	c-0.2,0-0.4-0.1-0.6-0.2C109,28.5,108.9,28.3,108.8,28.1z"/>
<path class="st6" d="M119,15.3h13.3c1.2,0,2.1,0.4,2.7,1.2c0.6,0.8,1,1.7,1,2.9c0,0.5-0.1,1-0.2,1.6c-0.2,1-0.6,1.9-1.2,2.7
	c-0.6,0.9-1.3,1.6-2.2,2.1c-0.9,0.6-1.8,0.9-2.8,0.9h-9.7h-2.4l-1.4,5.7c-0.1,0.3-0.3,0.6-0.5,0.8c-0.3,0.2-0.6,0.3-0.9,0.3
	c-0.3,0-0.5-0.1-0.7-0.3s-0.3-0.4-0.3-0.6c0-0.1,0-0.2,0-0.2l3.9-16c0.1-0.3,0.3-0.5,0.6-0.8C118.4,15.4,118.7,15.3,119,15.3z
	 M119.7,17.5l-1.7,6.9h12.1c0.8,0,1.5-0.3,2.1-1c0.6-0.7,1-1.5,1.2-2.4c0.1-0.4,0.2-0.9,0.2-1.3c0-0.6-0.1-1.2-0.4-1.6
	s-0.7-0.6-1.3-0.6H119.7z"/>
<path class="st6" d="M139.6,25.5c-0.1,0.3-0.3,0.6-0.6,0.8c-0.3,0.2-0.6,0.3-0.9,0.3c-0.3,0-0.5-0.1-0.7-0.2s-0.3-0.4-0.3-0.6
	c0-0.1,0-0.2,0-0.3l3.9-16c0.1-0.3,0.3-0.6,0.6-0.8c0.3-0.2,0.6-0.3,1-0.3c0.3,0,0.5,0.1,0.7,0.2s0.3,0.4,0.3,0.6c0,0.1,0,0.2,0,0.3
	L139.6,25.5z"/>
<path class="st6" d="M160.4,19.8c0-0.1,0-0.3,0-0.4c0-0.5-0.2-0.9-0.6-1.3c-0.4-0.4-0.8-0.6-1.4-0.6h-12.1c-0.3,0-0.5-0.1-0.7-0.2
	s-0.3-0.4-0.3-0.6c0-0.1,0-0.1,0-0.2c0.1-0.3,0.3-0.6,0.5-0.8s0.6-0.3,0.9-0.3h12.1c1.1,0,2.1,0.3,2.8,1c0.7,0.7,1.1,1.5,1.1,2.5
	c0,0.3,0,0.7-0.1,1l-1.7,6.8h-14.6c-2.8,0-4.1-0.8-4.1-2.5c0-0.3,0-0.5,0.1-0.9c0.2-0.8,0.6-1.5,1.2-2c0.6-0.5,1.3-0.9,2-1.1
	c0.8-0.2,1.6-0.3,2.5-0.3H160.4z M159.3,24.4l0.6-2.3h-12.2h-0.3c-0.2,0-0.4,0-0.6,0s-0.3,0-0.5,0c-0.2,0-0.4,0.1-0.5,0.1
	c-0.1,0-0.2,0.1-0.4,0.2c-0.1,0.1-0.2,0.2-0.3,0.3c-0.1,0.1-0.1,0.3-0.2,0.5c0,0.1,0,0.3,0,0.4c0,0.3,0.1,0.5,0.3,0.6
	c0.2,0.1,0.6,0.1,1.1,0.1h0.8H159.3z"/>
<path class="st6" d="M168.3,17.5c-0.3,0-0.5-0.1-0.7-0.2s-0.3-0.4-0.3-0.6c0-0.1,0-0.2,0-0.3c0.1-0.3,0.3-0.6,0.5-0.8
	s0.6-0.3,0.9-0.3h14.6c0.3,0,0.5,0.1,0.7,0.2c0.2,0.2,0.3,0.4,0.3,0.6c0,0.1,0,0.2,0,0.3c-0.1,0.5-0.4,0.8-0.9,1l-14.2,7h13.1
	c0.3,0,0.5,0.1,0.7,0.2c0.2,0.2,0.3,0.4,0.3,0.6c0,0.1,0,0.2,0,0.3c-0.1,0.3-0.3,0.6-0.5,0.8c-0.3,0.2-0.6,0.3-0.9,0.3h-17
	c-0.3,0-0.5-0.1-0.7-0.2c-0.2-0.2-0.3-0.4-0.3-0.6c0-0.1,0-0.2,0-0.3c0.1-0.4,0.4-0.7,0.7-0.9l14.2-7.1H168.3z"/>
<path class="st6" d="M204.2,19.8c0-0.1,0-0.3,0-0.4c0-0.5-0.2-0.9-0.6-1.3c-0.4-0.4-0.8-0.6-1.4-0.6h-12.1c-0.3,0-0.5-0.1-0.7-0.2
	s-0.3-0.4-0.3-0.6c0-0.1,0-0.1,0-0.2c0.1-0.3,0.3-0.6,0.5-0.8s0.6-0.3,0.9-0.3h12.1c1.1,0,2.1,0.3,2.8,1c0.7,0.7,1.1,1.5,1.1,2.5
	c0,0.3,0,0.7-0.1,1l-1.7,6.8h-14.6c-2.8,0-4.1-0.8-4.1-2.5c0-0.3,0-0.5,0.1-0.9c0.2-0.8,0.6-1.5,1.2-2c0.6-0.5,1.3-0.9,2-1.1
	c0.8-0.2,1.6-0.3,2.5-0.3H204.2z M203.1,24.4l0.6-2.3h-12.2h-0.3c-0.2,0-0.4,0-0.6,0s-0.3,0-0.5,0c-0.2,0-0.4,0.1-0.5,0.1
	c-0.1,0-0.2,0.1-0.4,0.2c-0.1,0.1-0.2,0.2-0.3,0.3c-0.1,0.1-0.1,0.3-0.2,0.5c0,0.1,0,0.3,0,0.4c0,0.3,0.1,0.5,0.3,0.6
	c0.2,0.1,0.6,0.1,1.1,0.1h0.8H203.1z"/>
<path class="st6" d="M208.6,24.5L208.6,24.5c0.1-0.1,0.2-0.1,0.3-0.1l13.7-3.5l-12-3.4c0,0-0.1,0-0.2-0.1l0,0
	c-0.4-0.2-0.5-0.4-0.5-0.8c0-0.1,0-0.1,0-0.2c0.1-0.3,0.3-0.6,0.5-0.8s0.6-0.3,1-0.3c0.2,0,0.4,0,0.6,0.1l15.6,4.5
	c0.5,0.1,0.7,0.4,0.7,0.8c0,0.1,0,0.2,0,0.3c-0.1,0.3-0.2,0.5-0.4,0.8c-0.2,0.2-0.5,0.3-0.8,0.4l-17.8,4.5c-0.4,0.1-0.6,0.1-0.6,0.1
	c-0.3,0-0.5-0.1-0.7-0.2s-0.3-0.4-0.3-0.6c0-0.1,0-0.2,0-0.3c0.1-0.2,0.2-0.4,0.4-0.6S208.4,24.6,208.6,24.5z"/>
</svg>
